<svg xmlns="http://www.w3.org/2000/svg" width="138.805" height="127.234" viewBox="0 0 138.805 127.234">
  <g id="checkmark" transform="translate(0 -0.008)">
    <path id="Path_1" data-name="Path 1" d="M63.617,127.242A63.617,63.617,0,1,1,97.935,10.065a4.34,4.34,0,0,1-4.69,7.3,54.933,54.933,0,1,0,25.314,46.256c0-1.811-.087-3.6-.254-5.367a4.338,4.338,0,1,1,8.635-.839q.294,3.063.294,6.206a63.691,63.691,0,0,1-63.616,63.616Zm0,0" fill="#000f9f"/>
    <path id="Path_2" data-name="Path 2" d="M179.7,93.638a4.306,4.306,0,0,1-3.065-1.272L150.611,66.341a4.339,4.339,0,0,1,6.136-6.137l22.961,22.961,60.545-60.546a4.339,4.339,0,1,1,6.137,6.136L182.771,92.372a4.346,4.346,0,0,1-3.071,1.267Zm0,0" transform="translate(-108.854 -15.555)" fill="#000f9f"/>
  </g>
</svg>
