<svg xmlns="http://www.w3.org/2000/svg" width="29.708" height="31.688" viewBox="0 0 29.708 31.688">
  <g id="share_2_" data-name="share (2)" transform="translate(0.001)">
    <g id="Group_2356" data-name="Group 2356" transform="translate(-0.001 0)">
      <path id="Path_12019" data-name="Path 12019" d="M40.138,20.548a5.566,5.566,0,0,0-4.48,2.263l-8.743-4.468a5.57,5.57,0,0,0-.181-3.66L35.9,9.178a5.548,5.548,0,1,0-.953-1.594L25.758,13.1a5.57,5.57,0,1,0,.341,6.908l8.718,4.455a5.571,5.571,0,1,0,5.32-3.919Zm0-18.691A3.713,3.713,0,1,1,36.424,5.57,3.718,3.718,0,0,1,40.138,1.857ZM21.57,20.486a3.713,3.713,0,1,1,3.713-3.713A3.718,3.718,0,0,1,21.57,20.486Zm18.567,9.346a3.713,3.713,0,1,1,3.713-3.713A3.718,3.718,0,0,1,40.138,29.832Z" transform="translate(-16)"/>
    </g>
  </g>
</svg>
