<svg xmlns="http://www.w3.org/2000/svg" width="13.75" height="18.333" viewBox="0 0 13.75 18.333">
  <g id="sort" transform="translate(-14 -8)">
    <path id="Path_33" data-name="Path 33" d="M20.651,10.9,17.978,8.224a.764.764,0,0,0-1.08,0L14.224,10.9a.764.764,0,1,0,1.08,1.08l1.37-1.37V25.57a.764.764,0,1,0,1.528,0V10.608l1.37,1.37a.764.764,0,1,0,1.08-1.08Z" transform="translate(0 0)" fill="#363434"/>
    <path id="Path_34" data-name="Path 34" d="M38.651,22.356a.764.764,0,0,0-1.08,0l-1.37,1.37V8.764a.764.764,0,0,0-1.528,0V23.725l-1.37-1.37a.764.764,0,1,0-1.08,1.08L34.9,26.109a.763.763,0,0,0,1.08,0l2.674-2.674a.764.764,0,0,0,0-1.08Z" transform="translate(-11.125 0)" fill="#363434"/>
  </g>
</svg>
