<svg xmlns="http://www.w3.org/2000/svg" width="69" height="50" viewBox="0 0 69 50">
  <g id="street_view" data-name="street view" transform="translate(-2)">
    <rect id="Rectangle_1740" data-name="Rectangle 1740" width="69" height="50" transform="translate(2)" fill="#333" opacity="0.87"/>
    <g id="_1cafffb8d90ef91c036cde33e8c20a8d" data-name="1cafffb8d90ef91c036cde33e8c20a8d" transform="translate(-76.447 15.373)">
      <g id="Group_2399" data-name="Group 2399" transform="translate(102.343 -4)">
        <path id="Path_12075" data-name="Path 12075" d="M386.73-501.909a3.268,3.268,0,0,0-1.973,1.488,2.5,2.5,0,0,0-.406,1.608,2.516,2.516,0,0,0,.4,1.6,3.372,3.372,0,0,0,1.842,1.462,3.488,3.488,0,0,0,1.821,0,3.372,3.372,0,0,0,1.842-1.462,2.515,2.515,0,0,0,.4-1.6,2.5,2.5,0,0,0-.406-1.608,3.194,3.194,0,0,0-3.509-1.488Zm1.7,1.191a2.182,2.182,0,0,1,1.16,1.562,2.152,2.152,0,0,1-1.2,2.263,1.508,1.508,0,0,1-.89.162,1.506,1.506,0,0,1-.89-.162,2.152,2.152,0,0,1-1.2-2.263,2.176,2.176,0,0,1,1.108-1.536,1.584,1.584,0,0,1,1.062-.213,1.476,1.476,0,0,1,.855.188Z" transform="translate(-376.853 502)" fill="#fff"/>
        <path id="Path_12076" data-name="Path 12076" d="M309.387-247.223c-2.483.208-4.007,1.145-4.423,2.722a22.954,22.954,0,0,0-.079,3.258v2.972l.162.318a1.472,1.472,0,0,0,1.462.833l.51.026v3.179a14.174,14.174,0,0,0,.1,3.387,1.381,1.381,0,0,0,.651.692l.266.141h4.32l.265-.141a1.381,1.381,0,0,0,.651-.692,14.192,14.192,0,0,0,.1-3.387v-3.178l.51-.026a1.472,1.472,0,0,0,1.462-.832l.162-.318v-2.966c0-3.268,0-3.294-.328-3.913a4.113,4.113,0,0,0-1-1.122,5.7,5.7,0,0,0-2.04-.806A11.679,11.679,0,0,0,309.387-247.223Zm2.628,1.2a3.016,3.016,0,0,1,2.279,1.509l.141.3.015,2.784c0,1.53,0,2.837-.015,2.9-.062.249-.2.323-.651.323h-.416v-4.423l-.151-.167a.472.472,0,0,0-.353-.179.472.472,0,0,0-.365.152l-.146.141-.026,5.881c-.026,5.552-.031,5.881-.125,5.97s-.239.093-2.014.093-1.93,0-2.014-.093-.093-.416-.125-5.97l-.026-5.881-.146-.141a.528.528,0,0,0-.461-.129.528.528,0,0,0-.376.3c-.016.057-.031,1.082-.031,2.274v2.175h-.416c-.447,0-.588-.067-.651-.323-.015-.067-.026-1.371-.015-2.9l.015-2.784.172-.349a3.213,3.213,0,0,1,2.509-1.488c.213-.036.447-.072.521-.083s.646-.015,1.275,0a7.574,7.574,0,0,1,1.594.115Z" transform="translate(-299.545 254.167)" fill="#fff"/>
        <path id="Path_12077" data-name="Path 12077" d="M113.763,216.01c-2.894.557-4.726,1.452-5.251,2.571-.489,1.046.1,2.066,1.66,2.858,4.1,2.087,13.546,2.087,17.642,0a4.127,4.127,0,0,0,1.275-.911,1.711,1.711,0,0,0,.541-1.239q.007-1.608-2.991-2.655a16.9,16.9,0,0,0-3.365-.754.491.491,0,0,0-.385.837c.136.151.2.172.947.307,2.789.5,4.736,1.431,4.736,2.258,0,.6-1.155,1.337-2.851,1.822a28.071,28.071,0,0,1-13.447,0c-1.7-.484-2.851-1.223-2.851-1.822,0-.818,2.024-1.785,4.71-2.258.813-.141.921-.177,1.031-.359a.487.487,0,0,0-.062-.634.456.456,0,0,0-.432-.146A6.5,6.5,0,0,0,113.763,216.01Z" transform="translate(-108.345 -196.378)" fill="#fff"/>
      </g>
    </g>
  </g>
</svg>
