<svg id="surface1" xmlns="http://www.w3.org/2000/svg" width="52.96" height="52.96" viewBox="0 0 52.96 52.96">
  <path id="Path_177" data-name="Path 177" d="M52.655,15.585,41.576.628a1.552,1.552,0,0,0-2.493,0L28,15.585A1.552,1.552,0,0,0,29.25,18.06h3.988v7.5a5.666,5.666,0,0,0-2.6-.631h-2.77a5.712,5.712,0,0,0-5.706,5.706v3.234a5.668,5.668,0,0,0-2.6-.631h-2.77a5.713,5.713,0,0,0-5.706,5.706v3.234a5.674,5.674,0,0,0-2.6-.631H5.706A5.713,5.713,0,0,0,0,47.254v4.155A1.551,1.551,0,0,0,1.552,52.96H45.868a1.551,1.551,0,0,0,1.552-1.552V18.06h3.988a1.552,1.552,0,0,0,1.247-2.475ZM3.1,47.254a2.606,2.606,0,0,1,2.6-2.6h2.77a2.606,2.606,0,0,1,2.6,2.6v2.6H3.1Zm11.079,0V38.944a2.606,2.606,0,0,1,2.6-2.6h2.77a2.606,2.606,0,0,1,2.6,2.6V49.857H14.182Zm11.08-8.309v-8.31a2.606,2.606,0,0,1,2.6-2.6h2.77a2.606,2.606,0,0,1,2.6,2.6V49.857H25.262ZM45.868,14.957a1.551,1.551,0,0,0-1.552,1.552V49.857H36.341V16.509a1.552,1.552,0,0,0-1.552-1.552H32.33l8-10.8,8,10.8Zm0,0" transform="translate(0 0)" fill="#000f9f"/>
</svg>
