<svg id="interest" xmlns="http://www.w3.org/2000/svg" width="53.528" height="50.313" viewBox="0 0 53.528 50.313">
  <path id="Path_193" data-name="Path 193" d="M53.431,123.383a4.472,4.472,0,0,0-2-2.876,4.568,4.568,0,0,0-3.478-.6l-5.579,1.263v-2.255a21.853,21.853,0,0,0,3.113-3.646,21.25,21.25,0,0,0,3.056-7.117,21.565,21.565,0,0,0,.042-9.256,1.045,1.045,0,0,0-1.241-.794,1.034,1.034,0,0,0-.8,1.227A19.5,19.5,0,0,1,46.5,107.7a19.2,19.2,0,0,1-2.762,6.431,18.426,18.426,0,0,1-1.366,1.783V104.457a1.04,1.04,0,0,0-1.045-1.034h-8.27V92.385a1.04,1.04,0,0,0-1.042-1.034L22.7,91.32h0a1.049,1.049,0,0,0-.738.3,1.027,1.027,0,0,0-.308.732V98.1H13.379a1.04,1.04,0,0,0-1.045,1.034v10.236H10v-1.4a1.039,1.039,0,0,0-1.045-1.033H7.886A19.353,19.353,0,0,1,8.74,96.791c.195-.531.416-1.061.657-1.574a1.029,1.029,0,0,0-.506-1.374,1.051,1.051,0,0,0-1.389.5c-.267.568-.513,1.154-.728,1.742a21.367,21.367,0,0,0-1.01,10.843H1.045A1.04,1.04,0,0,0,0,107.962v18.169a1.04,1.04,0,0,0,1.045,1.034H8.959A1.04,1.04,0,0,0,10,126.131v-.983h3.933l15.931,6.178a12.719,12.719,0,0,0,7.737.478l12.486-3.138a4.5,4.5,0,0,0,3.339-5.284ZM40.282,105.491v16.153l-2.795.633c-.3.068-.6.122-.91.164a10.732,10.732,0,0,1-3.506-.1l-.015,0v-1.567a4.742,4.742,0,0,0,.644-4.027,4.616,4.616,0,0,0-.492-1.084q-.072-.115-.149-.225l0,0V105.49h7.225Zm-16.54-12.1,7.225.024v20.373l-4.038-1.652-3.187-1.3Zm-9.317,6.772h7.225v9.811l-1.3-.531a1.054,1.054,0,0,0-.4-.079H14.425ZM7.913,125.1H2.091V109H7.913Zm41.663,1.566L37.09,129.8a10.62,10.62,0,0,1-6.459-.4l-16.114-6.249a1.054,1.054,0,0,0-.382-.071H10V111.433h9.74l6.764,2.768,3.7,1.515a2.575,2.575,0,0,1,1.4,3.349,2.947,2.947,0,0,1-.419.726,2.712,2.712,0,0,1-2.74.935l-.025-.006c-.06-.015-.12-.032-.18-.052L21.212,118l-.087-.033a1.049,1.049,0,0,0-1.351.594,1.03,1.03,0,0,0,.6,1.336s3.966,1.508,6.991,2.661c.061.023.121.045.182.065l2.322.883a19.345,19.345,0,0,0,2.131.717,12.826,12.826,0,0,0,5.953.074l3.606-.816.011,0,6.847-1.55a2.471,2.471,0,0,1,1.882.324,2.429,2.429,0,0,1-.724,4.416Zm0,0" transform="translate(0 -81.881)" fill="#000f9f"/>
  <path id="Path_194" data-name="Path 194" d="M118.922,7.352a1.048,1.048,0,0,0,.7-.266,19.917,19.917,0,0,1,6.443-3.843,20.123,20.123,0,0,1,8.073-1.133,19.8,19.8,0,0,1,5.7,1.227,1.049,1.049,0,0,0,1.349-.6,1.029,1.029,0,0,0-.6-1.334A21.906,21.906,0,0,0,134.276.046,22.25,22.25,0,0,0,125.349,1.3a22.032,22.032,0,0,0-7.128,4.251,1.025,1.025,0,0,0-.075,1.46,1.047,1.047,0,0,0,.776.341Zm0,0" transform="translate(-105.553 0)" fill="#000f9f"/>
  <path id="Path_195" data-name="Path 195" d="M351.806,41.843a1.055,1.055,0,0,0,1.475-.1l8.6-9.79a1.025,1.025,0,0,0-.1-1.458,1.054,1.054,0,0,0-1.475.1l-8.6,9.79A1.025,1.025,0,0,0,351.806,41.843Zm0,0" transform="translate(-314.703 -27.114)" fill="#000f9f"/>
  <path id="Path_196" data-name="Path 196" d="M406.136,99.738a2.6,2.6,0,1,0,2.625,2.6A2.613,2.613,0,0,0,406.136,99.738Zm0,3.123a.528.528,0,1,1,.534-.528A.531.531,0,0,1,406.136,102.861Zm0,0" transform="translate(-361.326 -89.429)" fill="#000f9f"/>
  <path id="Path_197" data-name="Path 197" d="M350.605,32.456a2.6,2.6,0,1,0-2.625-2.6A2.613,2.613,0,0,0,350.605,32.456Zm0-3.123a.528.528,0,1,1-.534.528A.532.532,0,0,1,350.605,29.333Zm0,0" transform="translate(-311.6 -24.447)" fill="#000f9f"/>
  <path id="Path_198" data-name="Path 198" d="M91.659,82.252a1.048,1.048,0,0,0,1.959-.079,1.035,1.035,0,0,0-.358-1.136A1.066,1.066,0,0,0,92.044,81,1.036,1.036,0,0,0,91.659,82.252Zm0,0" transform="translate(-82.007 -72.471)" fill="#000f9f"/>
</svg>
