<svg id="buildings_1_" data-name="buildings (1)" xmlns="http://www.w3.org/2000/svg" width="51.53" height="51.53" viewBox="0 0 51.53 51.53">
  <path id="Path_178" data-name="Path 178" d="M396,274.168h2.858v4.065H396Zm0,0" transform="translate(-356.012 -246.441)" fill="#000f9f"/>
  <path id="Path_179" data-name="Path 179" d="M396,359.5h2.858v4.065H396Zm0,0" transform="translate(-356.012 -323.143)" fill="#000f9f"/>
  <path id="Path_180" data-name="Path 180" d="M86,241.332h2.858V245.4H86Zm0,0" transform="translate(-77.316 -216.926)" fill="#000f9f"/>
  <path id="Path_181" data-name="Path 181" d="M86,326.664h2.858v4.065H86Zm0,0" transform="translate(-77.316 -293.628)" fill="#000f9f"/>
  <path id="Path_182" data-name="Path 182" d="M48.745,48.511V20.364H43.378V11.373H35.783L32.642,9.8V4.932H27.275V0H24.255V4.932H18.888V9.8L14.594,11.95v4.791H2.785v31.77H0V51.53H51.53V48.511Zm-31.133,0v-34.7l4.294-2.147V7.951h7.716v3.718l4.294,2.147v34.7ZM5.8,19.76h8.789V48.511H5.8Zm34.554.6H36.937V14.392h3.422Zm-3.422,3.019h8.789V48.511H36.937Zm0,0" transform="translate(0)" fill="#000f9f"/>
  <path id="Path_183" data-name="Path 183" d="M209,188.832h2.858V192.9H209Zm0,0" transform="translate(-187.896 -169.735)" fill="#000f9f"/>
  <path id="Path_184" data-name="Path 184" d="M273,188.832h2.858V192.9H273Zm0,0" transform="translate(-245.433 -169.735)" fill="#000f9f"/>
  <path id="Path_185" data-name="Path 185" d="M209,274.168h2.858v4.065H209Zm0,0" transform="translate(-187.896 -246.441)" fill="#000f9f"/>
  <path id="Path_186" data-name="Path 186" d="M273,274.168h2.858v4.065H273Zm0,0" transform="translate(-245.433 -246.441)" fill="#000f9f"/>
  <path id="Path_187" data-name="Path 187" d="M209,359.5h2.858v4.065H209Zm0,0" transform="translate(-187.896 -323.143)" fill="#000f9f"/>
  <path id="Path_188" data-name="Path 188" d="M273,359.5h2.858v4.065H273Zm0,0" transform="translate(-245.433 -323.143)" fill="#000f9f"/>
</svg>
