<svg id="Group_73" data-name="Group 73" xmlns="http://www.w3.org/2000/svg" width="60.002" height="59.344" viewBox="0 0 60.002 59.344">
  <path id="Path_174" data-name="Path 174" d="M188.449,12.746a12.892,12.892,0,0,0,25.783,0,12.892,12.892,0,0,0-25.783,0Zm23.439,0a10.549,10.549,0,0,1-21.1,0,10.549,10.549,0,0,1,21.1,0Zm0,0" transform="translate(-166.416)" fill="#000f9f"/>
  <path id="Path_175" data-name="Path 175" d="M14,246.711a1.181,1.181,0,0,0,1.654.01l5.682-5.535a3.473,3.473,0,0,0,.834-3.6l1.222-1.165a3.516,3.516,0,0,1,2.44-.975h15.58a10.556,10.556,0,0,0,7.357-2.955c.082-.078-.619.737,10.629-12.554a4.6,4.6,0,0,0-.557-6.533,4.737,4.737,0,0,0-6.577.517l-6.916,7.028a4.73,4.73,0,0,0-3.644-1.725H28.637a15.27,15.27,0,0,0-5.869-1.159c-5.643,0-10.571,2.577-13.216,7.409a3.526,3.526,0,0,0-3.135.96L.843,231.967a1.15,1.15,0,0,0,0,1.634Zm8.768-26.325a12.919,12.919,0,0,1,5.159,1.062,1.181,1.181,0,0,0,.47.1H41.706a2.318,2.318,0,1,1,0,4.635H32.144a1.159,1.159,0,1,0,0,2.317h9.562a4.667,4.667,0,0,0,4.688-4.635,4.6,4.6,0,0,0-.041-.606c6.69-6.8,7.633-7.754,7.673-7.8a2.37,2.37,0,0,1,3.3-.276,2.3,2.3,0,0,1,.275,3.271L47.093,230.874a8.21,8.21,0,0,1-5.681,2.259H25.833a5.862,5.862,0,0,0-4.068,1.625l-1,.95-9.181-9.077c2.146-3.98,6.172-6.244,11.181-6.244Zm-14.691,7.69a1.179,1.179,0,0,1,1.451-.163c.2.122-.38-.4,10.151,10a1.152,1.152,0,0,1,.006,1.633l-4.844,4.718L3.326,232.787Zm0,0" transform="translate(-0.501 -187.71)" fill="#000f9f"/>
  <path id="Path_176" data-name="Path 176" d="M268.206,41.147v1.358a3.471,3.471,0,0,0,1.172,6.753,1.159,1.159,0,1,1,0,2.317,2.126,2.126,0,0,1-1.522-.877,1.181,1.181,0,0,0-1.651-.141,1.15,1.15,0,0,0-.143,1.633,4.862,4.862,0,0,0,2.144,1.509v1.352a1.172,1.172,0,0,0,2.344,0V53.694a3.471,3.471,0,0,0-1.172-6.753,1.159,1.159,0,1,1,0-2.318,1.89,1.89,0,0,1,1.268.606A1.182,1.182,0,0,0,272.3,45.2a1.15,1.15,0,0,0-.027-1.639A4.537,4.537,0,0,0,270.55,42.5v-1.35a1.172,1.172,0,0,0-2.344,0Zm0,0" transform="translate(-234.688 -35.353)" fill="#000f9f"/>
</svg>
