<svg id="accept" xmlns="http://www.w3.org/2000/svg" width="48.517" height="50.069" viewBox="0 0 48.517 50.069">
  <path id="Path_199" data-name="Path 199" d="M72.1,98.637H63.241a1.467,1.467,0,1,0,0,2.934H72.1a1.467,1.467,0,1,0,0-2.934Zm0,0" transform="translate(-55.649 -88.991)" fill="#000f9f"/>
  <path id="Path_200" data-name="Path 200" d="M72.1,158.641H63.241a1.467,1.467,0,1,0,0,2.934H72.1a1.467,1.467,0,1,0,0-2.934Zm0,0" transform="translate(-55.649 -143.127)" fill="#000f9f"/>
  <path id="Path_201" data-name="Path 201" d="M72.1,218.645H63.241a1.467,1.467,0,1,0,0,2.934H72.1a1.467,1.467,0,1,0,0-2.934Zm0,0" transform="translate(-55.649 -197.263)" fill="#000f9f"/>
  <path id="Path_202" data-name="Path 202" d="M72.1,278.648H63.241a1.467,1.467,0,1,0,0,2.934H72.1a1.467,1.467,0,1,0,0-2.934Zm0,0" transform="translate(-55.649 -251.399)" fill="#000f9f"/>
  <path id="Path_203" data-name="Path 203" d="M72.1,339.656H63.241a1.467,1.467,0,1,0,0,2.934H72.1a1.467,1.467,0,1,0,0-2.934Zm0,0" transform="translate(-55.649 -306.441)" fill="#000f9f"/>
  <path id="Path_204" data-name="Path 204" d="M203.14,101.571h8.854a1.467,1.467,0,1,0,0-2.934H203.14a1.467,1.467,0,1,0,0,2.934Zm0,0" transform="translate(-181.711 -88.991)" fill="#000f9f"/>
  <path id="Path_205" data-name="Path 205" d="M203.14,161.575h8.854a1.467,1.467,0,1,0,0-2.934H203.14a1.467,1.467,0,1,0,0,2.934Zm0,0" transform="translate(-181.711 -143.127)" fill="#000f9f"/>
  <path id="Path_206" data-name="Path 206" d="M208.888,220.112a1.475,1.475,0,0,0-1.484-1.467h-4.265a1.467,1.467,0,1,0,0,2.934H207.4A1.475,1.475,0,0,0,208.888,220.112Zm0,0" transform="translate(-181.711 -197.263)" fill="#000f9f"/>
  <path id="Path_207" data-name="Path 207" d="M320.059,343.01a1.5,1.5,0,0,0-2.086.226l-3.821,4.71-2.366-1.695a1.5,1.5,0,0,0-2.072.327,1.457,1.457,0,0,0,.331,2.049l3.509,2.514a1.495,1.495,0,0,0,2.028-.27l4.705-5.8A1.455,1.455,0,0,0,320.059,343.01Zm0,0" transform="translate(-278.827 -309.176)" fill="#000f9f"/>
  <path id="Path_208" data-name="Path 208" d="M44.981,29.331A12.286,12.286,0,0,0,37.875,25.8V5.907A5.949,5.949,0,0,0,31.9,0H5.975A5.949,5.949,0,0,0,0,5.907v33.98a5.949,5.949,0,0,0,5.975,5.908H26.826a12.349,12.349,0,0,0,21.691-7.917,12.051,12.051,0,0,0-3.536-8.547ZM2.967,39.887V5.907A3,3,0,0,1,5.975,2.933H31.9a2.994,2.994,0,0,1,3.008,2.974V25.753A12.257,12.257,0,0,0,23.875,37.878a12,12,0,0,0,1.073,4.983H5.975a3,3,0,0,1-3.008-2.974ZM36.2,47.135a9.32,9.32,0,0,1-7.474-3.69,9.114,9.114,0,0,1-1.881-5.567A9.317,9.317,0,0,1,36.2,28.621l.146,0h.023a9.346,9.346,0,0,1,6.5,2.765,9.153,9.153,0,0,1,2.685,6.491A9.316,9.316,0,0,1,36.2,47.135Zm0,0" transform="translate(0 0.001)" fill="#000f9f"/>
</svg>
